<svg width="21" height="20" viewBox="0 0 21 20" fill="none" xmlns="http://www.w3.org/2000/svg">
<g id="Icon" clip-path="url(#clip0_40_628)">
<path id="Vector" d="M20.2631 10.1905C20.2631 9.36608 20.1944 8.77066 20.0494 8.15234H10.6982V11.847H16.1868C16.0831 12.4961 15.849 13.1175 15.4987 13.6738C15.1485 14.23 14.6892 14.7096 14.1486 15.0836L14.1334 15.2058L17.0876 17.4959L17.2937 17.5188C19.1792 15.7783 20.2631 13.221 20.2631 10.1905Z" fill="#4285F4"/>
<path id="Vector_2" d="M10.6984 19.9318C13.3855 19.9318 15.645 19.0463 17.2939 17.5196L14.1488 15.0769C13.3091 15.6723 12.1794 16.0769 10.6984 16.0769C9.43833 16.0702 8.21231 15.6669 7.19427 14.9243C6.17623 14.1816 5.41785 13.1373 5.02668 11.9395L4.91218 11.9471L1.83584 14.3288L1.79004 14.4433C3.43126 17.6952 6.79767 19.9242 10.6984 19.9242" fill="#34A853"/>
<path id="Vector_3" d="M5.02657 11.9395C4.58712 10.6616 4.58175 9.2743 5.01131 7.99298V7.86321L1.8968 5.44336L1.78993 5.48916C1.09231 6.87849 0.729004 8.41162 0.729004 9.96626C0.729004 11.5209 1.09231 13.054 1.78993 14.4434L5.02657 11.9395Z" fill="#FBBC05"/>
<path id="Vector_4" d="M10.6984 3.85496C12.5687 3.85496 13.8282 4.66412 14.5458 5.33588L17.3702 2.59542C15.6297 0.992366 13.3855 0 10.6984 0C6.79767 0 3.43126 2.23664 1.79004 5.49618L5.01141 7.99237C5.40702 6.79575 6.16759 5.75314 7.18627 5.01104C8.20494 4.26894 9.43052 3.86465 10.6908 3.85496" fill="#EB4335"/>
</g>
<defs>
<clipPath id="clip0_40_628">
<rect width="20" height="20" fill="white" transform="translate(0.5)"/>
</clipPath>
</defs>
</svg>
